<svg xmlns="http://www.w3.org/2000/svg" viewBox="0 0 119 119"><path d="m55.5 41q15.3 11.4 21.9 21.7 6.7 10.1 6.7 21.9 0 13.5-6.7 25.9-6.8 12.4-20 18.6-7.7 3.5-15.8 4.6-7.9 1.2-17.7 1.2-1 0-2-4.4-1-4.7-1-13 0-13.2 2.4-18.2 2.2-5 4.5-5 12.3 0 19.4-2 7.3-1.9 7.3-4.8 0-3.7-7.5-11.6-7.5-8-26.1-20.4l6.9-34.8 95.7-40.7 5.9 31z"/><path d="m58 49.3q7.7 5.7 10.9 10.8 3.3 5 3.3 10.8 0 6.8-3.3 12.9-3.3 6.2-9.9 9.2-3.8 1.8-7.8 2.4-3.9 0.5-8.8 0.5-0.5 0-1-2.2-0.5-2.3-0.5-6.4 0-6.6 1.2-9.1 1.1-2.5 2.3-2.5 6 0 9.5-0.9 3.7-1 3.7-2.4 0-1.9-3.8-5.8-3.7-3.9-12.9-10.1l3.5-17.3 47.3-20.2 3 15.4z"/></svg>