<svg viewBox="0 0 335 126" xmlns="http://www.w3.org/2000/svg"><path d="M303.931 25.9412C308.214 29.1804 311.261 32.2549 313.072 35.1647C314.939 38.0196 315.872 41.1216 315.872 44.4706C315.872 48.3137 314.939 51.9921 313.072 55.5059C311.206 59.0196 308.433 61.6549 304.755 63.4118C302.614 64.4 300.418 65.0588 298.167 65.3882C295.971 65.7176 293.5 65.8823 290.755 65.8823C290.48 65.8823 290.206 65.251 289.931 63.9882C289.657 62.6706 289.52 60.8314 289.52 58.4706C289.52 54.7372 289.849 52.1569 290.508 50.7294C291.112 49.302 291.743 48.5882 292.402 48.5882C295.806 48.5882 298.496 48.3137 300.472 47.7647C302.504 47.2157 303.52 46.5294 303.52 45.7059C303.52 44.6627 302.476 43.0157 300.39 40.7647C298.304 38.5137 294.68 35.6314 289.52 32.1176L292.402 17.2941L332.343 0L334.814 13.1765L303.931 25.9412Z" fill="#A72F3B"/><path d="M290.738 65.8823C284.699 65.8823 279.95 64.2627 276.491 61.0235C273.032 57.7294 271.193 52.6235 270.973 45.7059L269.326 1.23529L283.326 0C283.271 5.27059 283.189 12.2431 283.079 20.9176C283.024 29.5373 282.969 34.7804 282.914 36.6471C282.914 40.8745 283.628 43.9216 285.056 45.7882C286.538 47.6549 288.981 48.5882 292.385 48.5882L290.738 65.8823Z"/><path d="M259.817 26.3516C260.915 34.0378 261.464 40.3516 261.464 45.2927C261.464 51.6614 260.118 56.6849 257.428 60.3633C254.793 64.0418 251.197 65.881 246.64 65.881C243.071 65.881 240.079 65.332 237.664 64.2339C235.248 63.081 233.573 61.6261 232.64 59.8692C231.652 61.7359 230.115 63.2182 228.028 64.3163C225.942 65.3594 223.636 65.881 221.111 65.881C218.146 65.881 215.675 65.332 213.699 64.2339C211.722 63.081 210.432 61.5163 209.828 59.5398C208.511 61.7908 206.562 63.4104 203.981 64.3986C201.456 65.3869 197.969 65.881 193.522 65.881C193.248 65.881 192.973 65.2496 192.699 63.9869C192.424 62.6692 192.287 60.83 192.287 58.4692C192.287 54.7359 192.617 52.1555 193.275 50.728C193.879 49.3006 194.511 48.5869 195.169 48.5869C198.793 48.5869 201.483 48.0927 203.24 47.1045C204.997 46.1163 205.875 44.4143 205.875 41.9986V36.2339L216.581 35.4104V41.1751C216.581 46.1163 218.503 48.5869 222.346 48.5869C224.213 48.5869 225.64 48.0104 226.628 46.8574C227.617 45.7045 228.111 44.0849 228.111 41.9986V37.0574L238.817 36.2339V41.1751C238.817 43.6457 239.503 45.5123 240.875 46.7751C242.303 47.9829 244.362 48.5869 247.052 48.5869C248.424 48.5869 249.111 48.0378 249.111 46.9398C249.111 45.6221 248.891 43.481 248.452 40.5163C248.013 37.4967 247.409 34.0104 246.64 30.0574L259.817 26.3516Z"/><path d="M193.519 65.8814C189.786 65.8814 186.629 65.2501 184.049 63.9873C181.523 62.6697 179.849 60.8853 179.025 58.6344C177.762 60.8853 175.594 62.6697 172.519 63.9873C169.445 65.2501 165.602 65.8814 160.99 65.8814H159.343C159.068 65.8814 158.794 65.2501 158.519 63.9873C158.245 62.6697 158.107 60.8304 158.107 58.4697C158.107 54.7363 158.437 52.1559 159.096 50.7285C159.7 49.301 160.331 48.5873 160.99 48.5873H162.637C167.468 48.5873 170.79 47.8187 172.602 46.2814C174.468 44.7442 175.402 42.4932 175.402 39.5285V33.7638L186.107 32.9403V39.1167C186.107 42.5206 186.821 44.9638 188.249 46.4461C189.731 47.8736 192.037 48.5873 195.166 48.5873L193.519 65.8814ZM174.578 15.2344H175.402H188.99V26.352H175.402H174.578H160.99V15.2344H174.578Z"/><path d="M155.818 65.8842C154.171 72.6371 150.273 77.7156 144.124 81.1195C140.391 83.1509 135.806 84.7979 130.371 86.0607C124.936 87.3783 118.402 88.3391 110.771 88.943C110.057 85.3744 109.097 80.296 107.889 73.7077C120.955 72.8293 130.426 71.594 136.3 70.0018C142.23 68.4097 145.497 66.4881 146.1 64.2371C142.038 64.7862 137.81 65.0607 133.418 65.0607C129.136 65.0607 125.869 63.9077 123.618 61.6018C121.367 59.296 120.242 56.0567 120.242 51.8842C120.242 47.4371 121.01 43.2097 122.548 39.2018C124.14 35.1391 126.308 31.845 129.053 29.3195C131.798 26.794 134.9 25.5312 138.359 25.5312C143.081 25.5312 147.061 27.5352 150.3 31.543C153.54 35.496 155.598 41.1783 156.477 48.5901H161.006L159.359 65.8842H155.818ZM130.536 45.7077C130.536 46.8058 130.92 47.6293 131.689 48.1783C132.512 48.7273 133.912 49.0018 135.889 49.0018L144.783 48.8371C143.3 42.9077 140.473 39.943 136.3 39.943C134.763 39.943 133.418 40.5744 132.265 41.8371C131.112 43.0999 130.536 44.3901 130.536 45.7077Z"/><path d="M98.4021 24.293C101.477 24.293 103.947 25.144 105.814 26.8459C107.681 28.493 109.053 31.0734 109.932 34.5871C110.371 36.289 110.755 38.4028 111.084 40.9283C111.414 43.3988 111.579 45.54 111.579 47.3518C111.579 50.7008 110.947 53.8577 109.684 56.8224C108.422 59.7871 106.747 62.1753 104.661 63.9871C102.63 65.7988 100.543 66.7047 98.4021 66.7047C94.8335 66.7047 91.2649 65.8812 87.6962 64.2341C84.1276 62.5871 81.657 60.7479 80.2845 58.7165C78.308 61.3518 76.1943 63.2185 73.9433 64.3165C71.6923 65.3596 69.2766 65.8812 66.6962 65.8812C66.4217 65.8812 66.1472 65.2498 65.8727 63.9871C65.5982 62.6694 65.4609 60.8302 65.4609 58.4694C65.4609 54.7361 65.7903 52.1557 66.4492 50.7283C67.0531 49.3008 67.6845 48.5871 68.3433 48.5871C70.0453 48.5871 71.4178 48.3949 72.4609 48.0106C73.559 47.5714 74.5472 46.8302 75.4256 45.7871C76.359 44.689 77.4296 43.0145 78.6374 40.7636C81.0531 36.3714 83.1943 33.0224 85.0609 30.7165C86.9276 28.3557 88.8766 26.7087 90.908 25.7753C92.9943 24.7871 95.4923 24.293 98.4021 24.293ZM87.4492 44.7165C88.0531 45.7596 89.7002 46.8028 92.3904 47.8459C95.0805 48.889 97.4962 49.4106 99.6374 49.4106C100.406 49.4106 100.79 48.9989 100.79 48.1753C100.79 47.242 100.653 46.089 100.379 44.7165C100.159 43.289 99.9119 42.1087 99.6374 41.1753C99.0335 39.2538 97.9355 38.293 96.3433 38.293C94.9158 38.293 93.7354 38.4577 92.8021 38.7871C91.8688 39.1165 90.9904 39.7479 90.1668 40.6812C89.3982 41.5596 88.4923 42.9047 87.4492 44.7165Z"/><path d="M63.4118 65.8807C63.4118 68.7356 62.7255 71.4533 61.3529 74.0337C60.0353 76.6141 58.1137 78.9749 55.5882 81.116C52.6784 83.6415 48.4784 85.7004 42.9882 87.2925C37.498 88.9396 31.8157 89.7631 25.9412 89.7631C17.2667 89.7631 10.7608 87.9788 6.42353 84.4102C2.14118 80.8964 0 75.5435 0 68.3513C0 61.7631 1.64706 53.116 4.94118 42.4102L15.2353 45.2925C14.1922 49.2455 13.451 52.4572 13.0118 54.9278C12.5725 57.3435 12.3529 59.4847 12.3529 61.3513C12.3529 64.9749 13.6431 67.72 16.2235 69.5866C18.8588 71.5082 23.0588 72.469 28.8235 72.469C33.051 72.469 36.8941 72.1396 40.3529 71.4807C43.8118 70.8768 46.5294 70.1082 48.5059 69.1749C50.4824 68.2415 51.4706 67.418 51.4706 66.7043C51.4706 66.2651 50.949 65.8807 49.9059 65.5513C48.8627 65.167 46.9412 64.7553 44.1412 64.316C41.3412 63.8768 37.1961 63.3004 31.7059 62.5866L34.5882 48.1749C40.6275 48.4494 50.098 48.5866 63 48.5866H68.3529L66.7059 65.8807H63.4118Z"/><path d="M306.01 87.5608C307.85 87.5608 309.26 88.5117 310.243 90.4136C311.246 92.3155 311.747 94.834 311.747 97.969C311.747 99.3275 311.465 100.602 310.901 101.794C310.337 102.964 309.542 103.769 308.518 104.208C307.745 104.542 306.669 104.782 305.289 104.929C303.931 105.075 302.447 105.148 300.838 105.148H298.549C298.465 105.148 298.382 105.023 298.298 104.772C298.215 104.521 298.173 104.176 298.173 103.737C298.173 103.027 298.256 102.483 298.424 102.107C298.57 101.71 298.737 101.512 298.925 101.512H301.59C305.101 101.512 307.442 101.261 308.612 100.759C309.03 100.571 309.239 100.101 309.239 99.3484C309.239 98.7841 309.229 98.3765 309.208 98.1257C307.703 98.5019 306.24 98.69 304.819 98.69C303.44 98.69 302.395 98.3661 301.684 97.7182C300.994 97.0494 300.649 96.1507 300.649 95.0221C300.649 93.7681 300.879 92.5663 301.339 91.4168C301.799 90.2673 302.436 89.3373 303.252 88.6267C304.067 87.9161 304.986 87.5608 306.01 87.5608ZM303.126 93.7681C303.126 94.2906 303.314 94.7086 303.69 95.0221C304.088 95.3147 304.641 95.461 305.352 95.461C306.585 95.461 307.766 95.3565 308.895 95.1475C308.623 93.6845 308.194 92.5768 307.609 91.8244C307.024 91.072 306.324 90.6958 305.509 90.6958C304.84 90.6958 304.276 90.9988 303.816 91.6049C303.356 92.211 303.126 92.9321 303.126 93.7681ZM303.847 84.3004V80.7578H307.672V84.3004H303.847Z"/><path d="M298.55 105.149C297.087 105.149 296.042 104.899 295.415 104.397C295.352 106.027 295.007 107.417 294.38 108.567C293.774 109.737 292.75 110.751 291.308 111.608C289.886 112.485 287.932 113.217 285.445 113.802L284.254 110.604C286.511 110.019 288.246 109.424 289.458 108.817C290.691 108.211 291.527 107.605 291.966 106.999C292.426 106.393 292.656 105.724 292.656 104.993C292.656 103.739 292.53 102.318 292.28 100.729C292.05 99.1198 291.736 97.5523 291.339 96.0266L294.38 95.0234C294.693 96.9671 294.997 98.3779 295.289 99.2557C295.603 100.113 296.021 100.708 296.543 101.043C297.066 101.356 297.86 101.513 298.926 101.513L298.55 105.149Z"/><path d="M279.244 93.2969C280.498 93.2969 281.564 93.7567 282.441 94.6763C283.34 95.5959 284.009 96.7872 284.448 98.2502C284.908 99.6923 285.137 101.218 285.137 102.827C285.137 104.792 284.814 106.401 284.166 107.655C283.518 108.909 282.452 109.965 280.968 110.822C278.523 112.243 274.573 113.194 269.118 113.674C268.909 112.859 268.658 111.71 268.365 110.226C272.023 109.891 274.886 109.484 276.955 109.003C279.024 108.523 280.477 107.937 281.313 107.248C282.17 106.579 282.598 105.764 282.598 104.802V104.552C281.261 104.97 279.714 105.179 277.958 105.179C276.579 105.179 275.534 104.844 274.823 104.175C274.113 103.486 273.757 102.545 273.757 101.354C273.757 99.9535 273.987 98.6368 274.447 97.4037C274.928 96.1706 275.586 95.1779 276.422 94.4255C277.258 93.6731 278.199 93.2969 279.244 93.2969ZM276.265 99.9431C276.265 100.466 276.454 100.884 276.83 101.197C277.227 101.511 277.802 101.667 278.554 101.667C279.787 101.667 281.041 101.552 282.316 101.322C282.023 99.8595 281.574 98.7204 280.968 97.9053C280.383 97.0902 279.672 96.6827 278.836 96.6827C278.105 96.6827 277.488 97.0171 276.986 97.6859C276.506 98.3338 276.265 99.0862 276.265 99.9431Z"/><path d="M268.589 93.3922C268.757 94.3745 268.903 95.5344 269.028 96.872C269.154 98.1887 269.216 99.3173 269.216 100.258C269.216 101.742 268.851 102.933 268.119 103.832C267.409 104.71 266.52 105.148 265.454 105.148C264.284 105.148 263.26 104.939 262.382 104.521C261.525 104.103 260.919 103.529 260.564 102.797C260.104 103.55 259.508 104.135 258.777 104.553C258.045 104.95 257.23 105.148 256.332 105.148C255.328 105.148 254.451 104.95 253.698 104.553C252.946 104.135 252.444 103.539 252.193 102.766C251.692 103.56 250.929 104.156 249.905 104.553C248.881 104.95 247.522 105.148 245.829 105.148C245.746 105.148 245.662 105.023 245.579 104.772C245.495 104.521 245.453 104.177 245.453 103.738C245.453 103.027 245.537 102.484 245.704 102.107C245.85 101.71 246.017 101.512 246.206 101.512C247.961 101.512 249.257 101.251 250.093 100.728C250.929 100.185 251.347 99.3278 251.347 98.1574V96.3391L254.012 96.1196V98.4395C254.012 99.4009 254.231 100.153 254.67 100.697C255.13 101.24 255.799 101.512 256.676 101.512C257.471 101.512 258.129 101.23 258.651 100.665C259.195 100.101 259.467 99.4218 259.467 98.6276V96.6526L262.131 96.4331V98.4395C262.131 99.38 262.434 100.132 263.04 100.697C263.667 101.24 264.524 101.512 265.611 101.512C265.841 101.512 266.029 101.449 266.175 101.324C266.322 101.177 266.395 100.989 266.395 100.759C266.395 100.195 266.301 99.2755 266.113 98.0006C265.946 96.7048 265.747 95.4613 265.517 94.27L268.589 93.3922ZM258.244 87.3416V84.332H261.755V87.3416H258.244ZM259.843 88.7837H260.156H264.263V91.7306H260.156H259.843H255.736V88.7837H259.843Z"/><path d="M230.25 84.4895L229.936 82.389L239.624 78L240.094 79.9751L230.25 84.4895ZM245.831 105.149C244.681 105.149 243.636 104.992 242.696 104.679C241.776 104.365 240.794 103.812 239.749 103.017C238.704 102.223 237.429 101.063 235.924 99.5375C235.799 100.499 235.496 101.366 235.015 102.14C234.534 102.892 233.96 103.467 233.291 103.864C232.601 104.261 231.734 104.574 230.689 104.804C229.644 105.034 228.578 105.149 227.491 105.149C227.408 105.149 227.324 105.034 227.24 104.804C227.157 104.553 227.115 104.188 227.115 103.707C227.115 103.017 227.199 102.484 227.366 102.108C227.512 101.711 227.679 101.513 227.867 101.513C229.498 101.513 230.825 101.324 231.849 100.948C232.873 100.572 233.385 100.081 233.385 99.4748C233.385 98.9941 233.249 98.4925 232.977 97.97C232.706 97.4475 232.1 96.7264 231.159 95.8068C230.219 94.8663 228.797 93.6541 226.896 92.1702L227.648 88.1888L243.668 80.7588L244.357 83.6743L229.686 90.4146C231.838 92.0239 234.033 93.8213 236.269 95.8068C238.025 97.3743 239.436 98.5552 240.501 99.3494C241.567 100.144 242.529 100.708 243.386 101.042C244.243 101.356 245.183 101.513 246.207 101.513L245.831 105.149Z"/><path d="M227.465 105.148C225.396 105.148 223.839 104.615 222.794 103.549C221.77 102.462 221.226 100.79 221.164 98.5333L220.725 81.0086L223.954 80.7578L223.922 96.809C223.901 98.3556 224.204 99.526 224.831 100.32C225.479 101.114 226.493 101.512 227.872 101.512L227.465 105.148Z"/><path d="M208.471 89.5352C210.478 91.2072 212.035 92.6179 213.142 93.7674C214.25 94.9169 215.044 95.9515 215.525 96.8711C216.006 97.7907 216.246 98.7103 216.246 99.6299C216.246 100.779 215.943 101.783 215.337 102.639C214.731 103.496 213.916 104.155 212.892 104.615C211.951 105.074 210.812 105.304 209.474 105.304C207.949 105.304 206.81 104.938 206.057 104.207C205.305 103.455 204.929 102.472 204.929 101.26C204.929 99.2537 206.016 96.7666 208.189 93.7988L206.653 92.4821L208.471 89.5352ZM207.656 99.6926C207.656 100.215 207.855 100.654 208.252 101.009C208.649 101.365 209.245 101.542 210.039 101.542C210.958 101.542 211.784 101.417 212.515 101.166C213.268 100.915 213.644 100.623 213.644 100.288C213.644 99.7657 213.383 99.1596 212.86 98.4699C212.359 97.7593 211.387 96.7352 209.945 95.3976C209.192 96.359 208.618 97.2159 208.22 97.9683C207.844 98.6998 207.656 99.2746 207.656 99.6926Z"/><path d="M197.746 106.578L197.15 82.2508L200.379 82L200.285 106.359L197.746 106.578Z"/><path d="M191.751 94.2891C191.94 95.2923 192.128 96.4627 192.316 97.8003C192.525 99.1379 192.629 100.131 192.629 100.779C192.629 101.719 192.389 102.649 191.908 103.569C191.428 104.467 190.78 105.115 189.965 105.512C188.794 106.098 186.934 106.39 184.384 106.39C184.301 106.39 184.217 106.265 184.133 106.014C184.05 105.763 184.008 105.418 184.008 104.979C184.008 104.269 184.092 103.725 184.259 103.349C184.405 102.952 184.572 102.754 184.76 102.754C188.125 102.754 189.808 102.388 189.808 101.656C189.808 101.092 189.703 100.152 189.494 98.8348C189.285 97.4972 189.014 96.2746 188.679 95.1669L191.751 94.2891ZM186.516 109.87H186.83H190.936V112.817H186.83H186.516H182.409V109.87H186.516Z"/><path d="M184.367 106.39C181.67 106.39 179.988 105.512 179.319 103.757C178.859 104.614 178.076 105.272 176.968 105.732C175.86 106.171 174.439 106.39 172.704 106.39H172.077C171.994 106.39 171.91 106.265 171.827 106.014C171.743 105.763 171.701 105.418 171.701 104.979C171.701 104.269 171.785 103.725 171.952 103.349C172.098 102.952 172.265 102.753 172.454 102.753H173.081C174.941 102.753 176.289 102.461 177.125 101.876C177.982 101.29 178.41 100.392 178.41 99.1795V96.6402L181.075 96.4207V99.1482C181.075 100.339 181.357 101.238 181.921 101.844C182.506 102.45 183.457 102.753 184.774 102.753L184.367 106.39ZM176.184 92.9722V89.4297H180.009V92.9722H176.184Z"/><path d="M172.059 106.392C169.363 106.392 167.68 105.514 167.012 103.759C166.552 104.616 165.768 105.274 164.66 105.734C163.553 106.173 162.131 106.392 160.397 106.392H159.77C159.686 106.392 159.603 106.267 159.519 106.016C159.435 105.765 159.394 105.42 159.394 104.981C159.394 104.271 159.477 103.727 159.644 103.351C159.791 102.954 159.958 102.755 160.146 102.755H160.773C162.633 102.755 163.981 102.463 164.817 101.878C165.674 101.292 166.102 100.394 166.102 99.1815V96.6422L168.767 96.4227V99.1502C168.767 100.341 169.049 101.24 169.614 101.846C170.199 102.452 171.15 102.755 172.467 102.755L172.059 106.392ZM165.319 90.0273H165.632H169.739V92.9742H165.632H165.319H161.212V90.0273H165.319Z"/><path d="M159.771 106.392C158.224 106.392 157.137 106.11 156.51 105.545C156.26 106.946 155.716 108.21 154.88 109.339C154.044 110.467 152.895 111.418 151.432 112.191C149.195 113.362 146.249 114.271 142.591 114.919L141.995 113.007L141.588 111.721C146.332 110.864 149.561 109.861 151.275 108.712C153.01 107.562 153.877 106.319 153.877 104.981C153.877 104.291 153.752 103.194 153.501 101.689C153.25 100.163 152.937 98.69 152.56 97.2688L155.601 96.2656C155.915 98.2093 156.218 99.6201 156.51 100.498C156.824 101.355 157.242 101.95 157.764 102.285C158.287 102.598 159.081 102.755 160.147 102.755L159.771 106.392Z"/><path d="M145.92 94.29C146.108 95.2932 146.296 96.4636 146.485 97.8012C146.694 99.1388 146.798 100.132 146.798 100.779C146.798 101.72 146.558 102.65 146.077 103.57C145.596 104.468 144.948 105.116 144.133 105.513C142.963 106.099 141.103 106.391 138.553 106.391C138.469 106.391 138.386 106.266 138.302 106.015C138.219 105.764 138.177 105.419 138.177 104.98C138.177 104.27 138.26 103.726 138.428 103.35C138.574 102.953 138.741 102.755 138.929 102.755C142.294 102.755 143.977 102.389 143.977 101.657C143.977 101.093 143.872 100.152 143.663 98.8358C143.454 97.4982 143.182 96.2755 142.848 95.1678L145.92 94.29ZM141.813 91.4058V87.8633H145.638V91.4058H141.813Z"/><path d="M138.536 106.392C135.839 106.392 134.157 105.514 133.488 103.759C133.028 104.616 132.245 105.274 131.137 105.734C130.029 106.173 128.608 106.392 126.873 106.392H126.246C126.163 106.392 126.079 106.267 125.996 106.016C125.912 105.765 125.87 105.42 125.87 104.981C125.87 104.271 125.954 103.727 126.121 103.351C126.267 102.954 126.434 102.755 126.623 102.755H127.25C129.11 102.755 130.458 102.463 131.294 101.878C132.151 101.292 132.579 100.394 132.579 99.1815V96.6422L135.244 96.4227V99.1502C135.244 100.341 135.526 101.24 136.09 101.846C136.675 102.452 137.626 102.755 138.943 102.755L138.536 106.392ZM131.795 90.0273H132.109H136.216V92.9742H132.109H131.795H127.688V90.0273H131.795Z"/><path d="M124.666 106.392C124.854 106.706 124.948 107.061 124.948 107.458C124.948 108.294 124.75 109.109 124.353 109.904C123.976 110.698 123.381 111.419 122.566 112.067C121.291 113.07 119.546 113.885 117.33 114.512C115.136 115.16 112.962 115.484 110.809 115.484C107.862 115.484 105.658 114.878 104.195 113.666C102.732 112.474 102 110.75 102 108.493C102 106.319 102.543 103.393 103.63 99.7148L106.107 100.405C105.313 103.331 104.916 105.577 104.916 107.145C104.916 108.608 105.469 109.757 106.577 110.593C107.685 111.429 109.305 111.847 111.436 111.847C113.234 111.847 114.958 111.638 116.609 111.22C118.26 110.823 119.598 110.342 120.622 109.778C121.646 109.214 122.158 108.733 122.158 108.336C122.158 108.002 121.939 107.709 121.5 107.458C121.082 107.228 120.329 106.988 119.243 106.737C118.177 106.486 116.609 106.183 114.54 105.828L115.261 102.599C117.414 102.704 120.277 102.756 123.851 102.756H126.61L126.202 106.392H124.666Z"/></svg>