<svg viewBox="0 0 211 182" xmlns="http://www.w3.org/2000/svg"><path d="M51.3947 50.7587C50.7969 50.7587 50.3008 50.2974 50.2881 49.7147C50.2627 47.845 49.9956 4.00548 70.9441 0.254046C75.1669 -0.498668 79.0335 0.424014 82.4423 2.98567C96.3316 13.463 98.2395 48.1728 98.3158 49.6418C98.3413 50.2246 97.8707 50.7102 97.2729 50.7466C96.6751 50.7587 96.1536 50.3217 96.1154 49.7511C96.1027 49.399 94.1948 14.5313 81.0813 4.63679C78.1559 2.42721 74.9761 1.67449 71.3638 2.31794C52.2214 5.74158 52.5013 49.2412 52.514 49.6782C52.514 50.261 52.0306 50.7345 51.4201 50.7466L51.3947 50.7587Z" fill="#DCACB1"/><path d="M144.999 181.999H13.9023L31.9636 42.7344H126.938L144.999 181.999Z" fill="#DCACB1"/><path d="M131.097 181.999H0L18.0613 42.7344H113.036L131.097 181.999Z" fill="#E5C1C4"/><path d="M65.6316 143.403C65.6316 143.403 31.4551 122.569 35.2836 104.079C38.2726 89.6322 60.0097 90.6398 65.5426 105.852C71.0118 90.6155 92.7362 89.5229 95.8016 103.958C99.7191 122.436 65.6316 143.403 65.6316 143.403Z" fill="#DCACB1"/><path d="M115.96 171.388C115.985 171.643 115.896 171.898 115.718 172.08C115.54 172.262 115.286 172.371 115.019 172.371H15.2619C14.9948 172.371 14.7404 172.262 14.5623 172.08C14.3843 171.898 14.2952 171.643 14.3207 171.388L16.5974 149.474L16.6992 148.539L22.3974 93.5912L22.5118 92.4378L27.6758 42.7344H29.5583L24.5342 91.2116L24.407 92.3892L23.682 99.3336L23.593 100.244L20.2097 132.781L20.0952 133.837L18.5307 148.964L18.429 149.899L16.2794 170.587H113.988L106.688 99.9042L106.586 98.8966L103.113 65.2794L103.024 64.3567L102.732 61.5765L102.643 60.6417L100.786 42.7344H102.668L115.973 171.388H115.96Z" fill="#D6D6D6"/><path d="M49.1594 49.7106C49.1594 52.0657 47.1498 53.9837 44.6822 53.9837C42.2147 53.9837 40.2051 52.0657 40.2051 49.7106C40.2051 47.3555 42.2147 45.4375 44.6822 45.4375C47.1498 45.4375 49.1594 47.3555 49.1594 49.7106Z" fill="#DCACB1"/><path d="M94.9738 49.7106C94.9738 52.0657 92.9642 53.9837 90.4967 53.9837C88.0292 53.9837 86.0195 52.0657 86.0195 49.7106C86.0195 47.3555 88.0292 45.4375 90.4967 45.4375C92.9642 45.4375 94.9738 47.3555 94.9738 49.7106Z" fill="#DCACB1"/><path d="M44.6818 50.7587C44.084 50.7587 43.5879 50.2974 43.5752 49.7147C43.5498 47.845 43.2827 4.00548 64.2312 0.254046C68.454 -0.498668 72.3206 0.424014 75.7294 2.98567C89.6187 13.463 91.5266 48.1728 91.6029 49.6418C91.6284 50.2246 91.1578 50.7102 90.56 50.7466C89.9749 50.7587 89.4407 50.3217 89.4025 49.7511C89.3898 49.399 87.4819 14.5313 74.3684 4.63679C71.443 2.42721 68.2632 1.67449 64.6509 2.31794C45.5085 5.74158 45.7884 49.2412 45.8011 49.6782C45.8011 50.261 45.3178 50.7345 44.7072 50.7466L44.6818 50.7587Z" fill="#DCACB1"/><path d="M159.358 96.9098C159.028 96.9098 158.755 96.6107 158.748 96.2329C158.734 95.0207 158.586 66.597 170.144 64.1647C172.474 63.6767 174.608 64.2749 176.488 65.9358C184.151 72.7288 185.204 95.2332 185.246 96.1857C185.26 96.5635 185.001 96.8783 184.671 96.902C184.341 96.9098 184.053 96.6265 184.032 96.2565C184.025 96.0282 182.973 73.4215 175.737 67.0063C174.123 65.5737 172.369 65.0857 170.376 65.5029C159.814 67.7226 159.969 95.9259 159.976 96.2093C159.976 96.5871 159.709 96.8941 159.372 96.902L159.358 96.9098Z" fill="#DCACB1"/><path d="M211 181.996H138.67L148.635 91.7031H201.035L211 181.996Z" fill="#DCACB1"/><path d="M203.33 181.996H131L140.965 91.7031H193.365L203.33 181.996Z" fill="#E5C1C4"/><path d="M167.21 156.974C167.21 156.974 148.354 143.467 150.466 131.478C152.115 122.111 164.108 122.765 167.161 132.628C170.178 122.749 182.164 122.041 183.856 131.4C186.017 143.38 167.21 156.974 167.21 156.974Z" fill="#DCACB1"/><path d="M194.979 175.117C194.993 175.282 194.943 175.447 194.845 175.565C194.747 175.683 194.607 175.754 194.459 175.754H139.42C139.273 175.754 139.132 175.683 139.034 175.565C138.936 175.447 138.887 175.282 138.901 175.117L140.157 160.909L140.213 160.303L143.357 124.677L143.42 123.929L146.269 91.7031H147.308L144.536 123.134L144.466 123.897L144.066 128.4L144.017 128.99L142.15 150.085L142.087 150.77L141.224 160.578L141.167 161.184L139.982 174.597H193.891L189.863 128.77L189.807 128.116L187.891 106.32L187.842 105.722L187.68 103.92L187.631 103.313L186.606 91.7031H187.645L194.986 175.117H194.979Z" fill="#D6D6D6"/><path d="M158.122 96.2317C158.122 97.7587 157.012 99.0024 155.651 99.0024C154.289 99.0024 153.18 97.7587 153.18 96.2317C153.18 94.7046 154.289 93.4609 155.651 93.4609C157.012 93.4609 158.122 94.7046 158.122 96.2317Z" fill="#DCACB1"/><path d="M183.399 96.2317C183.399 97.7587 182.29 99.0024 180.928 99.0024C179.566 99.0024 178.457 97.7587 178.457 96.2317C178.457 94.7046 179.566 93.4609 180.928 93.4609C182.29 93.4609 183.399 94.7046 183.399 96.2317Z" fill="#DCACB1"/><path d="M155.651 96.9098C155.321 96.9098 155.048 96.6107 155.041 96.2329C155.027 95.0207 154.879 66.597 166.437 64.1647C168.767 63.6767 170.9 64.2749 172.781 65.9358C180.444 72.7288 181.497 95.2332 181.539 96.1857C181.553 96.5635 181.294 96.8783 180.964 96.902C180.641 96.9098 180.346 96.6265 180.325 96.2565C180.318 96.0282 179.265 73.4215 172.03 67.0063C170.416 65.5737 168.662 65.0857 166.669 65.5029C156.107 67.7226 156.262 95.9259 156.269 96.2093C156.269 96.5871 156.002 96.8941 155.665 96.902L155.651 96.9098Z" fill="#DCACB1"/></svg>
