<svg xmlns="http://www.w3.org/2000/svg" viewBox="0 0 512 512"><path d="m163.8 33.9c23.8-1.1 31.5-1.4 92.3-1.4 60.8 0 68.5 0.3 92.3 1.4 23.9 1.1 40.2 4.8 54.4 10.3 14.7 5.8 27.2 13.4 39.7 25.9 12.4 12.4 20 25 25.8 39.6 5.4 14.2 9.2 30.5 10.3 54.4 1.1 23.8 1.4 31.5 1.4 92.3 0 60.8-0.3 68.5-1.4 92.3-1.1 23.9-4.8 40.2-10.3 54.4-5.8 14.7-13.4 27.2-25.9 39.7-12.5 12.5-25 20.1-39.7 25.9-14.2 5.4-30.5 9.2-54.4 10.3-23.8 1.1-31.5 1.4-92.3 1.4-60.8 0-68.5-0.3-92.3-1.4-23.9-1.1-40.2-4.8-54.4-10.3-14.7-5.8-27.2-13.4-39.7-25.9-12.5-12.5-20.1-25-25.9-39.7-5.4-14.2-9.2-30.5-10.3-54.4-1.1-23.8-1.4-31.5-1.4-92.3 0-60.8 0.3-68.5 1.4-92.3 1.1-23.9 4.8-40.2 10.3-54.4 5.8-14.6 13.4-27.2 25.9-39.6 12.5-12.5 25-20.1 39.7-25.9 14.2-5.5 30.5-9.3 54.5-10.3zm92.2 38.9c-59.8 0-66.9 0.2-90.5 1.3-21.9 1-33.7 4.7-41.6 7.7-10.5 4.1-18 9-25.8 16.8-7.8 7.8-12.6 15.3-16.7 25.8-3.1 7.9-6.8 19.7-7.8 41.6-1 23.6-1.3 30.7-1.3 90.5 0 59.8 0.2 66.9 1.3 90.5 1 21.9 4.7 33.7 7.8 41.6 4.1 10.5 8.9 18 16.7 25.8 7.8 7.8 15.3 12.6 25.8 16.7 7.9 3.1 19.7 6.8 41.6 7.8 23.6 1 30.7 1.3 90.5 1.3 59.8 0 66.9-0.2 90.5-1.3 21.9-1 33.7-4.7 41.6-7.8 10.5-4.1 18-8.9 25.8-16.7 7.8-7.8 12.6-15.3 16.7-25.8 3.1-7.9 6.8-19.7 7.8-41.6 1-23.6 1.3-30.7 1.3-90.5 0-59.8-0.2-66.9-1.3-90.5-1-21.9-4.7-33.7-7.8-41.6-4.1-10.5-8.9-18-16.7-25.8-7.8-7.8-15.3-12.7-25.8-16.8-7.9-3-19.7-6.7-41.6-7.7-23.6-1.1-30.7-1.3-90.5-1.3z"/><path d="m256 371.5c-63.6 0-115-51.4-115-115 0-63.6 51.4-115 115-115 63.6 0 115 51.4 115 115 0 63.6-51.4 115-115 115zm74.7-115c0-41.3-33.4-74.7-74.7-74.7-41.3 0-74.7 33.4-74.7 74.7 0 41.3 33.4 74.7 74.7 74.7 41.3 0 74.7-33.4 74.7-74.7z"/><path d="m375.6 163.8c-14.8 0-26.8-12-26.8-26.9 0-14.8 12-26.8 26.8-26.8 14.9 0 26.9 12 26.9 26.8 0 14.9-12 26.9-26.9 26.9z"/></svg>