<svg xmlns="http://www.w3.org/2000/svg" viewBox="0 0 512 512"><path d="M189.7,469.7c21.24,6.44,43.13,10.3,66.3,10.3,123.59,0,224-100.41,224-224S379.59,32,256,32,32,132.41,32,256c0,95.26,59.86,177.01,144.18,209.2-1.93-17.38-3.86-46.34,0-66.3l25.75-110.71s-6.44-12.87-6.44-33.47c0-30.9,19.31-54.07,41.2-54.07,19.31,0,28.32,14.16,28.32,32.18,0,19.31-12.87,46.99-19.31,73.38-3.86,21.89,11.59,41.2,34.11,41.2,39.91,0,70.8-42.48,70.8-102.99,0-53.43-38.62-90.11-93.98-90.11-63.08,0-100.41,46.99-100.41,96.55,0,19.31,6.44,38.62,16.74,51.49,1.93,1.29,1.93,3.22,1.29,6.44l-6.44,24.46c0,3.86-2.57,5.15-6.44,2.57-28.32-12.87-45.06-53.43-45.06-86.25,0-70.8,50.21-135.17,146.76-135.17,77.24,0,137.1,55.36,137.1,128.74,0,77.24-47.63,139.03-115.86,139.03-21.89,0-43.13-11.59-50.21-25.75l-15.45,53.43c-5.15,19.31-19.31,45.06-28.97,60.51v-.64Z"/></svg>