<svg viewBox="0 0 189 118" xmlns="http://www.w3.org/2000/svg"><path fill-rule="evenodd" clip-rule="evenodd" d="M168.341 3.52287C176.473 5.46131 182.877 11.1729 185.05 18.4261C189 31.5719 189 59 189 59C189 59 189 86.4277 185.05 99.5748C182.877 106.827 176.473 112.539 168.341 114.478C153.602 118 94.5 118 94.5 118C94.5 118 35.3981 118 20.6589 114.478C12.5273 112.539 6.1227 106.827 3.94938 99.5748C0 86.4277 0 59 0 59C0 59 0 31.5719 3.94938 18.4261C6.1227 11.1729 12.5273 5.46131 20.6589 3.52287C35.3981 3.57628e-06 94.5 0 94.5 0C94.5 0 153.602 3.57628e-06 168.341 3.52287ZM124 59.0012L75 84V34L124 59.0012Z"/></svg>